{
	"patcher" : 	{
		"fileversion" : 1,
		"rect" : [ 41.0, 46.0, 911.0, 706.0 ],
		"bglocked" : 0,
		"defrect" : [ 41.0, 46.0, 911.0, 706.0 ],
		"openrect" : [ 0.0, 0.0, 0.0, 0.0 ],
		"openinpresentation" : 0,
		"default_fontsize" : 18.0,
		"default_fontface" : 0,
		"default_fontname" : "Monaco",
		"gridonopen" : 0,
		"gridsize" : [ 15.0, 15.0 ],
		"gridsnaponopen" : 0,
		"toolbarvisible" : 1,
		"boxanimatetime" : 200,
		"imprint" : 0,
		"boxes" : [ 			{
				"box" : 				{
					"maxclass" : "button",
					"patching_rect" : [ 609.0, 254.0, 20.0, 20.0 ],
					"numinlets" : 1,
					"id" : "obj-22",
					"numoutlets" : 1,
					"outlettype" : [ "bang" ]
				}

			}
, 			{
				"box" : 				{
					"maxclass" : "button",
					"patching_rect" : [ 744.0, 251.0, 20.0, 20.0 ],
					"numinlets" : 1,
					"id" : "obj-21",
					"numoutlets" : 1,
					"outlettype" : [ "bang" ]
				}

			}
, 			{
				"box" : 				{
					"maxclass" : "button",
					"patching_rect" : [ 195.0, 252.0, 20.0, 20.0 ],
					"numinlets" : 1,
					"id" : "obj-15",
					"numoutlets" : 1,
					"outlettype" : [ "bang" ]
				}

			}
, 			{
				"box" : 				{
					"maxclass" : "button",
					"patching_rect" : [ 76.0, 251.0, 20.0, 20.0 ],
					"numinlets" : 1,
					"id" : "obj-14",
					"numoutlets" : 1,
					"outlettype" : [ "bang" ]
				}

			}
, 			{
				"box" : 				{
					"maxclass" : "message",
					"text" : "colorWithName green",
					"patching_rect" : [ 195.0, 283.0, 123.0, 18.0 ],
					"fontsize" : 11.595187,
					"numinlets" : 2,
					"id" : "obj-20",
					"numoutlets" : 1,
					"fontname" : "Arial",
					"outlettype" : [ "" ]
				}

			}
, 			{
				"box" : 				{
					"maxclass" : "message",
					"text" : "colorWithName white",
					"patching_rect" : [ 610.0, 283.0, 120.0, 18.0 ],
					"fontsize" : 11.595187,
					"numinlets" : 2,
					"id" : "obj-19",
					"numoutlets" : 1,
					"fontname" : "Arial",
					"outlettype" : [ "" ]
				}

			}
, 			{
				"box" : 				{
					"maxclass" : "message",
					"text" : "colorWithName black",
					"patching_rect" : [ 749.0, 283.0, 120.0, 18.0 ],
					"fontsize" : 11.595187,
					"numinlets" : 2,
					"id" : "obj-18",
					"numoutlets" : 1,
					"fontname" : "Arial",
					"outlettype" : [ "" ]
				}

			}
, 			{
				"box" : 				{
					"maxclass" : "message",
					"text" : "colorWithName red",
					"patching_rect" : [ 74.0, 283.0, 110.0, 18.0 ],
					"fontsize" : 11.595187,
					"numinlets" : 2,
					"id" : "obj-17",
					"numoutlets" : 1,
					"fontname" : "Arial",
					"outlettype" : [ "" ]
				}

			}
, 			{
				"box" : 				{
					"maxclass" : "button",
					"patching_rect" : [ 480.0, 165.0, 20.0, 20.0 ],
					"numinlets" : 1,
					"id" : "obj-13",
					"numoutlets" : 1,
					"outlettype" : [ "bang" ]
				}

			}
, 			{
				"box" : 				{
					"maxclass" : "newobj",
					"text" : "counter 0 1 6",
					"patching_rect" : [ 247.0, 155.0, 151.0, 31.0 ],
					"fontsize" : 18.0,
					"numinlets" : 5,
					"id" : "obj-36",
					"numoutlets" : 4,
					"fontname" : "Monaco",
					"outlettype" : [ "int", "", "", "int" ]
				}

			}
, 			{
				"box" : 				{
					"maxclass" : "button",
					"patching_rect" : [ 469.0, 250.0, 20.0, 20.0 ],
					"numinlets" : 1,
					"id" : "obj-33",
					"numoutlets" : 1,
					"outlettype" : [ "bang" ]
				}

			}
, 			{
				"box" : 				{
					"maxclass" : "button",
					"patching_rect" : [ 330.0, 249.0, 20.0, 20.0 ],
					"numinlets" : 1,
					"id" : "obj-32",
					"numoutlets" : 1,
					"outlettype" : [ "bang" ]
				}

			}
, 			{
				"box" : 				{
					"maxclass" : "newobj",
					"text" : "gate 6",
					"patching_rect" : [ 371.0, 202.0, 86.5, 31.0 ],
					"fontsize" : 18.0,
					"numinlets" : 2,
					"id" : "obj-30",
					"numoutlets" : 6,
					"fontname" : "Monaco",
					"outlettype" : [ "", "", "", "", "", "" ]
				}

			}
, 			{
				"box" : 				{
					"maxclass" : "number",
					"patching_rect" : [ 427.0, 640.0, 50.0, 31.0 ],
					"fontsize" : 18.0,
					"numinlets" : 1,
					"id" : "obj-11",
					"numoutlets" : 2,
					"fontname" : "Monaco",
					"outlettype" : [ "int", "bang" ]
				}

			}
, 			{
				"box" : 				{
					"maxclass" : "number",
					"patching_rect" : [ 367.0, 638.0, 50.0, 31.0 ],
					"fontsize" : 18.0,
					"numinlets" : 1,
					"id" : "obj-10",
					"numoutlets" : 2,
					"fontname" : "Monaco",
					"outlettype" : [ "int", "bang" ]
				}

			}
, 			{
				"box" : 				{
					"maxclass" : "number",
					"patching_rect" : [ 310.0, 639.0, 50.0, 31.0 ],
					"fontsize" : 18.0,
					"numinlets" : 1,
					"id" : "obj-16",
					"numoutlets" : 2,
					"fontname" : "Monaco",
					"outlettype" : [ "int", "bang" ]
				}

			}
, 			{
				"box" : 				{
					"maxclass" : "newobj",
					"text" : "js color.js",
					"patching_rect" : [ 347.0, 554.0, 129.0, 31.0 ],
					"fontsize" : 18.0,
					"numinlets" : 1,
					"id" : "obj-9",
					"numoutlets" : 4,
					"fontname" : "Monaco",
					"outlettype" : [ "", "", "", "" ]
				}

			}
, 			{
				"box" : 				{
					"maxclass" : "message",
					"text" : "colorWithRGB1 $1 $2 $3",
					"patching_rect" : [ 347.0, 521.0, 139.0, 18.0 ],
					"fontsize" : 11.595187,
					"numinlets" : 2,
					"id" : "obj-5",
					"numoutlets" : 1,
					"fontname" : "Arial",
					"outlettype" : [ "" ]
				}

			}
, 			{
				"box" : 				{
					"maxclass" : "message",
					"text" : "#ffff",
					"patching_rect" : [ 492.0, 641.0, 118.0, 29.0 ],
					"fontsize" : 18.0,
					"numinlets" : 2,
					"id" : "obj-8",
					"numoutlets" : 1,
					"fontname" : "Monaco",
					"outlettype" : [ "" ]
				}

			}
, 			{
				"box" : 				{
					"maxclass" : "newobj",
					"text" : "prepend set",
					"patching_rect" : [ 492.0, 594.0, 130.0, 31.0 ],
					"fontsize" : 18.0,
					"numinlets" : 1,
					"id" : "obj-2",
					"numoutlets" : 1,
					"fontname" : "Monaco",
					"outlettype" : [ "" ]
				}

			}
, 			{
				"box" : 				{
					"maxclass" : "message",
					"text" : "colorWithName blue",
					"patching_rect" : [ 330.0, 283.0, 115.0, 18.0 ],
					"fontsize" : 11.595187,
					"numinlets" : 2,
					"id" : "obj-4",
					"numoutlets" : 1,
					"fontname" : "Arial",
					"outlettype" : [ "" ]
				}

			}
, 			{
				"box" : 				{
					"maxclass" : "message",
					"text" : "colorWithName yellow",
					"patching_rect" : [ 470.0, 283.0, 125.0, 18.0 ],
					"fontsize" : 11.595187,
					"numinlets" : 2,
					"id" : "obj-3",
					"numoutlets" : 1,
					"fontname" : "Arial",
					"outlettype" : [ "" ]
				}

			}
, 			{
				"box" : 				{
					"maxclass" : "newobj",
					"text" : "js color.js",
					"patching_rect" : [ 373.0, 337.0, 129.0, 31.0 ],
					"fontsize" : 18.0,
					"numinlets" : 1,
					"id" : "obj-31",
					"numoutlets" : 4,
					"fontname" : "Monaco",
					"outlettype" : [ "", "", "", "" ]
				}

			}
, 			{
				"box" : 				{
					"maxclass" : "swatch",
					"patching_rect" : [ 347.0, 386.0, 147.0, 125.0 ],
					"numinlets" : 3,
					"id" : "obj-7",
					"numoutlets" : 2,
					"outlettype" : [ "", "float" ]
				}

			}
, 			{
				"box" : 				{
					"maxclass" : "newobj",
					"text" : "metro 600",
					"patching_rect" : [ 442.0, 96.0, 108.0, 31.0 ],
					"fontsize" : 18.0,
					"numinlets" : 2,
					"id" : "obj-6",
					"numoutlets" : 1,
					"fontname" : "Monaco",
					"outlettype" : [ "bang" ]
				}

			}
, 			{
				"box" : 				{
					"maxclass" : "comment",
					"text" : "color.maxpat\nwookay.noh at gmail.com",
					"linecount" : 2,
					"patching_rect" : [ 31.0, 35.0, 266.0, 55.0 ],
					"fontsize" : 18.0,
					"numinlets" : 1,
					"bgcolor" : [ 0.545098, 0.85098, 0.592157, 1.0 ],
					"id" : "obj-12",
					"numoutlets" : 0,
					"fontname" : "Monaco"
				}

			}
, 			{
				"box" : 				{
					"maxclass" : "toggle",
					"hint" : "run",
					"patching_rect" : [ 442.0, 21.0, 54.0, 54.0 ],
					"numinlets" : 1,
					"bgcolor" : [ 0.0, 0.298039, 1.0, 1.0 ],
					"id" : "obj-1",
					"numoutlets" : 1,
					"outlettype" : [ "int" ]
				}

			}
 ],
		"lines" : [ 			{
				"patchline" : 				{
					"source" : [ "obj-36", 0 ],
					"destination" : [ "obj-30", 0 ],
					"hidden" : 0,
					"midpoints" : [  ]
				}

			}
, 			{
				"patchline" : 				{
					"source" : [ "obj-6", 0 ],
					"destination" : [ "obj-36", 0 ],
					"hidden" : 0,
					"midpoints" : [  ]
				}

			}
, 			{
				"patchline" : 				{
					"source" : [ "obj-6", 0 ],
					"destination" : [ "obj-13", 0 ],
					"hidden" : 0,
					"midpoints" : [  ]
				}

			}
, 			{
				"patchline" : 				{
					"source" : [ "obj-9", 0 ],
					"destination" : [ "obj-16", 0 ],
					"hidden" : 0,
					"midpoints" : [  ]
				}

			}
, 			{
				"patchline" : 				{
					"source" : [ "obj-7", 0 ],
					"destination" : [ "obj-5", 0 ],
					"hidden" : 0,
					"midpoints" : [  ]
				}

			}
, 			{
				"patchline" : 				{
					"source" : [ "obj-9", 3 ],
					"destination" : [ "obj-2", 0 ],
					"hidden" : 0,
					"midpoints" : [  ]
				}

			}
, 			{
				"patchline" : 				{
					"source" : [ "obj-5", 0 ],
					"destination" : [ "obj-9", 0 ],
					"hidden" : 0,
					"midpoints" : [  ]
				}

			}
, 			{
				"patchline" : 				{
					"source" : [ "obj-2", 0 ],
					"destination" : [ "obj-8", 0 ],
					"hidden" : 0,
					"midpoints" : [  ]
				}

			}
, 			{
				"patchline" : 				{
					"source" : [ "obj-4", 0 ],
					"destination" : [ "obj-31", 0 ],
					"hidden" : 0,
					"midpoints" : [  ]
				}

			}
, 			{
				"patchline" : 				{
					"source" : [ "obj-31", 0 ],
					"destination" : [ "obj-7", 0 ],
					"hidden" : 0,
					"midpoints" : [  ]
				}

			}
, 			{
				"patchline" : 				{
					"source" : [ "obj-31", 1 ],
					"destination" : [ "obj-7", 1 ],
					"hidden" : 0,
					"midpoints" : [  ]
				}

			}
, 			{
				"patchline" : 				{
					"source" : [ "obj-31", 2 ],
					"destination" : [ "obj-7", 2 ],
					"hidden" : 0,
					"midpoints" : [  ]
				}

			}
, 			{
				"patchline" : 				{
					"source" : [ "obj-1", 0 ],
					"destination" : [ "obj-6", 0 ],
					"hidden" : 0,
					"midpoints" : [  ]
				}

			}
, 			{
				"patchline" : 				{
					"source" : [ "obj-3", 0 ],
					"destination" : [ "obj-31", 0 ],
					"hidden" : 0,
					"midpoints" : [  ]
				}

			}
, 			{
				"patchline" : 				{
					"source" : [ "obj-9", 1 ],
					"destination" : [ "obj-10", 0 ],
					"hidden" : 0,
					"midpoints" : [  ]
				}

			}
, 			{
				"patchline" : 				{
					"source" : [ "obj-9", 2 ],
					"destination" : [ "obj-11", 0 ],
					"hidden" : 0,
					"midpoints" : [  ]
				}

			}
, 			{
				"patchline" : 				{
					"source" : [ "obj-33", 0 ],
					"destination" : [ "obj-3", 0 ],
					"hidden" : 0,
					"midpoints" : [  ]
				}

			}
, 			{
				"patchline" : 				{
					"source" : [ "obj-32", 0 ],
					"destination" : [ "obj-4", 0 ],
					"hidden" : 0,
					"midpoints" : [  ]
				}

			}
, 			{
				"patchline" : 				{
					"source" : [ "obj-14", 0 ],
					"destination" : [ "obj-17", 0 ],
					"hidden" : 0,
					"midpoints" : [  ]
				}

			}
, 			{
				"patchline" : 				{
					"source" : [ "obj-15", 0 ],
					"destination" : [ "obj-20", 0 ],
					"hidden" : 0,
					"midpoints" : [  ]
				}

			}
, 			{
				"patchline" : 				{
					"source" : [ "obj-22", 0 ],
					"destination" : [ "obj-19", 0 ],
					"hidden" : 0,
					"midpoints" : [  ]
				}

			}
, 			{
				"patchline" : 				{
					"source" : [ "obj-21", 0 ],
					"destination" : [ "obj-18", 0 ],
					"hidden" : 0,
					"midpoints" : [  ]
				}

			}
, 			{
				"patchline" : 				{
					"source" : [ "obj-17", 0 ],
					"destination" : [ "obj-31", 0 ],
					"hidden" : 0,
					"midpoints" : [  ]
				}

			}
, 			{
				"patchline" : 				{
					"source" : [ "obj-18", 0 ],
					"destination" : [ "obj-31", 0 ],
					"hidden" : 0,
					"midpoints" : [  ]
				}

			}
, 			{
				"patchline" : 				{
					"source" : [ "obj-19", 0 ],
					"destination" : [ "obj-31", 0 ],
					"hidden" : 0,
					"midpoints" : [  ]
				}

			}
, 			{
				"patchline" : 				{
					"source" : [ "obj-20", 0 ],
					"destination" : [ "obj-31", 0 ],
					"hidden" : 0,
					"midpoints" : [  ]
				}

			}
, 			{
				"patchline" : 				{
					"source" : [ "obj-30", 5 ],
					"destination" : [ "obj-21", 0 ],
					"hidden" : 0,
					"midpoints" : [  ]
				}

			}
, 			{
				"patchline" : 				{
					"source" : [ "obj-30", 4 ],
					"destination" : [ "obj-22", 0 ],
					"hidden" : 0,
					"midpoints" : [  ]
				}

			}
, 			{
				"patchline" : 				{
					"source" : [ "obj-30", 3 ],
					"destination" : [ "obj-33", 0 ],
					"hidden" : 0,
					"midpoints" : [  ]
				}

			}
, 			{
				"patchline" : 				{
					"source" : [ "obj-30", 2 ],
					"destination" : [ "obj-32", 0 ],
					"hidden" : 0,
					"midpoints" : [  ]
				}

			}
, 			{
				"patchline" : 				{
					"source" : [ "obj-6", 0 ],
					"destination" : [ "obj-30", 1 ],
					"hidden" : 0,
					"midpoints" : [  ]
				}

			}
, 			{
				"patchline" : 				{
					"source" : [ "obj-30", 0 ],
					"destination" : [ "obj-14", 0 ],
					"hidden" : 0,
					"midpoints" : [  ]
				}

			}
, 			{
				"patchline" : 				{
					"source" : [ "obj-30", 1 ],
					"destination" : [ "obj-15", 0 ],
					"hidden" : 0,
					"midpoints" : [  ]
				}

			}
 ]
	}

}
